#!OML:ASF I:\Actors\actors\Patient Classification 2\Patient 1\Session 1\actor1.ASF
:FULLY-SPECIFIED
:DEGREES
141
root -0.480183 18.6756 5.73318 -0.641055 -6.72559 0.175468
lowerback 3.16281 -4.31079 3.8089
upperback -1.5828 -5.42873 5.04454
thorax -3.27015 -2.73418 3.41113
lowerneck -17.1794 -2.96402 -2.57157
upperneck 18.2687 -2.599 -3.89184
head 8.52094 -1.8343 -1.21095
rclavicle 2.2239e-015 -1.27222e-014
rhumerus 3.50319 3.15086 -80.8703
rradius 98.4782
rwrist -45.4223
rhand -19.9488 -30.7988
rfingers 7.12502
rthumb 6.38928 -60.6824
lclavicle 2.2239e-015 -1.27222e-014
lhumerus 33.7049 -51.7206 70.9101
lradius 74.8351
lwrist 17.9779
lhand -14.2666 -26.415
lfingers 7.12502
lthumb 11.8721 3.22845
rfemur 7.98677 4.5953 12.9098
rtibia 3.18055e-015
rfoot -14.8097 -8.77928
rtoes -5.03752
lfemur -0.692038 -0.185074 -15.058
ltibia 19.7129
lfoot -21.6438 12.4096
ltoes -55.4225
142
root -0.462575 18.6717 5.75137 -0.75902 -7.02727 0.226755
lowerback 2.74035 -4.45488 3.84956
upperback -1.31295 -5.66241 5.2854
thorax -2.72585 -2.84963 3.59537
lowerneck -17.6093 -2.82376 -2.63775
upperneck 18.0757 -2.30799 -4.2008
head 8.53362 -1.73496 -1.27362
rclavicle 7.15532e-014 1.11319e-014
rhumerus 5.03339 2.65626 -80.9302
rradius 98.6595
rwrist -45.1226
rhand -20.1583 -30.5298
rfingers 7.12502
rthumb 6.18698 -60.4194
lclavicle 7.15532e-014 1.11319e-014
lhumerus 35.6443 -51.122 69.8583
lradius 74.6446
lwrist 17.7462
lhand -14.2081 -26.9029
lfingers 7.12502
lthumb 11.9284 2.73727
rfemur 8.09215 4.91389 12.8222
rtibia 3.02153e-014
rfoot -14.804 -8.8163
rtoes -5.47385
lfemur -0.458339 0.181049 -15.1447
ltibia 19.6758
lfoot -21.6331 12.3472
ltoes -55.4352
143
root -0.444143 18.6673 5.7703 -0.906747 -7.32509 0.304865
lowerback 2.80266 -4.57937 4.07618
upperback -1.38688 -5.80771 5.36789
thorax -2.84748 -2.92554 3.57533
lowerneck -17.6476 -2.63692 -2.4869
upperneck 17.9591 -2.01704 -4.56666
head 8.49911 -1.62545 -1.38461
rclavicle 6.01448e-014 -9.54166e-015
rhumerus 5.83694 2.15217 -81.01
rradius 98.8426
rwrist -44.8937
rhand -20.2488 -30.1715
rfingers 7.12502
rthumb 6.09966 -60.0637
lclavicle 6.01448e-014 -9.54166e-015
lhumerus 36.7727 -50.8542 69.3323
lradius 74.4878
lwrist 17.4387
lhand -14.4614 -27.1357
lfingers 7.12502
lthumb 11.6842 2.51849
rfemur 8.23144 5.23373 12.7009
rtibia 3.49861e-014
rfoot -14.8139 -8.85698
rtoes -5.86992
lfemur -0.198471 0.477824 -15.2755
ltibia 19.6538
lfoot -21.7007 12.3222
ltoes -55.4385
144
root -0.427328 18.6635 5.78957 -1.04252 -7.59753 0.412101
lowerback 2.85863 -4.70247 4.3092
upperback -1.48755 -5.9498 5.40155
thorax -3.00002 -3.00056 3.50322
lowerneck -17.6819 -2.46721 -2.32462
upperneck 17.8806 -1.76469 -4.87373
head 8.47799 -1.52754 -1.48304
rclavicle -6.9028e-014 3.81667e-014
rhumerus 6.50882 1.61809 -81.1465
rradius 99.0815
rwrist -44.6726
rhand -20.4775 -29.9415
rfingers 7.12502
rthumb 5.87879 -59.8399
lclavicle -6.9028e-014 3.81667e-014
lhumerus 37.7778 -50.612 68.8959
lradius 74.273
lwrist 16.89
lhand -14.8197 -27.1929
lfingers 7.12502
lthumb 11.3387 2.48056
rfemur 8.36304 5.52741 12.5488
rtibia -4.77083e-015
rfoot -14.8206 -8.88236
rtoes -6.1532
lfemur 0.0502963 0.8223 -15.4263
ltibia 19.6332
lfoot -21.7358 12.2552
ltoes -55.4555
145
root -0.412277 18.6607 5.80774 -1.14507 -7.87179 0.489842
lowerback 2.86497 -4.81092 4.47879
upperback -1.57002 -6.0787 5.50353
thorax -3.09305 -3.06767 3.5303
lowerneck -17.8279 -2.34853 -2.29392
upperneck 17.9267 -1.54807 -5.13
head 8.52194 -1.45402 -1.55161
rclavicle -3.58558e-014 2.38542e-014
rhumerus 7.15439 1.14304 -81.1633
rradius 99.4029
rwrist -44.5879
rhand -20.9913 -29.7694
rfingers 7.12502
rthumb 5.38278 -59.6811
lclavicle -3.58558e-014 2.38542e-014
lhumerus 38.7812 -50.3617 68.5292
lradius 74.0379
lwrist 16.2819
lhand -14.7868 -27.6882
lfingers 7.12502
lthumb 11.3703 1.98355
rfemur 8.45665 5.8175 12.4369
rtibia -2.54444e-014
rfoot -14.8166 -8.91831
rtoes -6.60909
lfemur 0.265203 1.25744 -15.5233
ltibia 19.6039
lfoot -21.7048 12.1548
ltoes -55.5322
